<svg width="495" height="549" viewBox="0 0 495 549" fill="none" xmlns="http://www.w3.org/2000/svg">
<path d="M220.619 12.8522C235.355 4.8269 253.135 4.7286 267.959 12.5905L468.426 118.907C484.777 127.578 495 144.572 495 163.079V385.026C495 403.478 484.838 420.43 468.564 429.126L268.098 536.241C253.2 544.201 235.291 544.101 220.483 535.976L25.9482 429.238C9.94615 420.457 0 403.655 0 385.403V162.704C0 144.395 10.0072 127.55 26.0865 118.794L220.619 12.8522Z" fill="white"/>
<path d="M267.491 13.474L467.958 119.79C483.981 128.288 494 144.942 494 163.079V385.026C494 403.109 484.041 419.722 468.092 428.244L267.627 535.359C253.027 543.16 235.476 543.062 220.964 535.1L26.4293 428.361C10.7472 419.756 1 403.29 1 385.403V162.704C1 144.761 10.8071 128.253 26.5648 119.672L221.097 13.7305C235.539 5.86562 252.963 5.76929 267.491 13.474Z" stroke="black" stroke-opacity="0.1" stroke-width="2"/>
<path fill-rule="evenodd" clip-rule="evenodd" d="M41.88 141.733L230.995 38.2565C236.048 35.4645 241.727 34 247.5 34C253.273 34 258.952 35.4645 264.005 38.2565L453.12 141.776C458.521 144.731 463.029 149.082 466.174 154.374C469.319 159.666 470.986 165.706 471 171.862V377.396C470.986 383.553 469.319 389.592 466.174 394.885C463.029 400.177 458.521 404.528 453.12 407.483L264.005 511.002C258.952 513.794 253.273 515.258 247.5 515.258C241.727 515.258 236.048 513.794 230.995 511.002L41.88 407.483C36.4792 404.528 31.9708 400.177 28.8257 394.885C25.6805 389.592 24.014 383.553 24 377.396V171.884C24.0024 165.716 25.6636 159.663 28.8093 154.359C31.9551 149.054 36.4697 144.693 41.88 141.733ZM247.5 257.458L420.175 162.901L247.5 68.343L74.8248 162.901L247.5 257.458ZM230.308 471.589V287.18L58.3846 193.095V377.396L230.308 471.589ZM299.107 346.823C299.107 336.379 306.44 323.678 315.485 318.456C324.531 313.234 331.863 317.467 331.863 327.912V358.858C331.863 369.302 324.531 382.003 315.485 387.225C306.44 392.448 299.107 388.214 299.107 377.769V346.823ZM408.261 268.456C399.215 273.678 391.883 286.379 391.883 296.823V327.769C391.883 338.214 399.215 342.448 408.261 337.225C417.306 332.003 424.639 319.302 424.639 308.858V277.912C424.639 267.467 417.306 263.234 408.261 268.456Z" fill="black"/>
</svg>
